# xmcd
#
# Track frame offsets: 
#        150
#        20384
#        38418
#        53896
#        72310
#        84832
#        104398
#        114606
#        132202
#        143217
#        151322
#        161045
#        176810
#        191907
#        209114
#
# Disc length: 3047 seconds
#
# Revision: 0
# Processed by: cddbd v1.5.2PL0 Copyright (c) Steve Scherf et al.
# Submitted via: ExactAudioCopy v0.95b3
#
DISCID=d40be50f
DTITLE=Dmitri Kubyshkin - Playback Time
DYEAR=2010
DGENRE=Instrumental
TTITLE0=Hard Life
TTITLE1=Spanish Aroma
TTITLE2=Rock'n'roll
TTITLE3=Marina's minuet
TTITLE4=Dedicadet to ABBA
TTITLE5=Sexy Girl
TTITLE6=Flutepipe
TTITLE7=Bagatel
TTITLE8=Land of tools
TTITLE9=Malvina
TTITLE10=Piero
TTITLE11=Monaco
TTITLE12=Shal
TTITLE13=Hanging out
TTITLE14=Lullaby
EXTD=
EXTT0=
EXTT1=
EXTT2=
EXTT3=
EXTT4=
EXTT5=
EXTT6=
EXTT7=
EXTT8=
EXTT9=
EXTT10=
EXTT11=
EXTT12=
EXTT13=
EXTT14=
PLAYORDER=
